<?xml version="1.0" encoding="utf-8"?>
<!-- Generator: Adobe Illustrator 21.1.0, SVG Export Plug-In . SVG Version: 6.00 Build 0)  -->
<svg version="1.1" id="Layer_1" xmlns="http://www.w3.org/2000/svg" xmlns:xlink="http://www.w3.org/1999/xlink" x="0px" y="0px"
	 viewBox="0 0 40 40" style="enable-background:new 0 0 40 40;" xml:space="preserve">
<style type="text/css">
	.st0{fill:#FFFFFF;}
	.st1{fill:#CCCCCC;}
	.st2{fill:#008BCE;}
	.st3{fill:none;}
</style>
<circle class="st0" cx="20" cy="20" r="18.7"/>
<g id="Layer_1_1_">
</g>
<g id="Isolation_Mode">
	<g>
		<g>
			<path class="st1" d="M20,1.7c2.5,0,4.9,0.5,7.1,1.4S31.3,5.4,33,7c1.7,1.7,3,3.6,3.9,5.8c1,2.3,1.4,4.7,1.4,7.1s-0.5,4.9-1.4,7.1
				c-0.9,2.3-2.3,4.3-3.9,6c-1.7,1.7-3.6,3-5.8,3.9c-2.3,1-4.7,1.4-7.1,1.4s-4.9-0.5-7.1-1.4C10.7,36,8.7,34.6,7,33
				c-1.7-1.7-3-3.6-3.9-5.8c-1-2.3-1.4-4.7-1.4-7.1s0.5-4.9,1.4-7.1C4,10.7,5.4,8.7,7,7c1.7-1.7,3.6-3,5.8-3.9
				C15.1,2.2,17.5,1.7,20,1.7 M20,1C9.5,1,1,9.5,1,20s8.5,19,19,19s19-8.5,19-19S30.5,1,20,1L20,1z"/>
		</g>
		<g>
			<g>
				<path class="st2" d="M20.4,26.1c-0.4,0-0.7,0.4-0.7,0.8v1.7h1.6v-1.7C21.2,26.4,20.9,26.1,20.4,26.1z"/>
				<path class="st2" d="M23.8,10.5c-3.6,0-6.8,2.2-8.2,5.3c-0.6-0.2-1.2-0.3-1.8-0.3c-3.6,0-6.6,2.9-6.6,6.6c0,3.6,2.9,6.6,6.6,6.6
					h2.8l0,0c-0.5-0.4-0.8-1-0.8-1.6v-2.3c-0.3-0.2-0.6-0.5-0.8-0.9c-0.3-0.7-0.1-1.5,0.4-2.1l3.7-3.6c0.4-0.4,0.8-0.6,1.3-0.6
					s1,0.2,1.3,0.6l3.7,3.6c0.6,0.5,0.7,1.4,0.4,2.1c-0.2,0.4-0.4,0.7-0.8,0.9v2.5c0,0.6-0.3,1.1-0.6,1.4h0.1c4.6-0.4,8.3-4.3,8.3-9
					C32.8,14.5,28.8,10.5,23.8,10.5z"/>
				<path class="st3" d="M25.1,27.2v-2.5c0.3-0.2,0.6-0.5,0.8-0.9c0.3-0.7,0.1-1.5-0.4-2.1l-3.7-3.6c-0.4-0.4-0.8-0.6-1.3-0.6
					s-1,0.2-1.3,0.6l-3.7,3.6c-0.6,0.5-0.7,1.4-0.4,2.1c0.2,0.4,0.4,0.7,0.8,0.9V27c0,0.7,0.3,1.3,0.8,1.6h3.1v-1.7
					c0-0.4,0.3-0.8,0.7-0.8c0.5,0,0.8,0.3,0.8,0.8v1.7h3.3C24.9,28.2,25.1,27.7,25.1,27.2z"/>
			</g>
		</g>
	</g>
</g>
</svg>
