<?xml version="1.0" encoding="utf-8"?>
<!-- Generator: Adobe Illustrator 21.1.0, SVG Export Plug-In . SVG Version: 6.00 Build 0)  -->
<svg version="1.1" xmlns="http://www.w3.org/2000/svg" xmlns:xlink="http://www.w3.org/1999/xlink" x="0px" y="0px"
	 viewBox="0 0 302 38" style="enable-background:new 0 0 302 38;" xml:space="preserve">
<style type="text/css">
	.st0{fill:#333333;}
</style>
<g id="Layer_1">
</g>
<g id="Isolation_Mode">
	<g>
		<path class="st0" d="M17.5,1c3.5,0,8.2,0.5,12.7,3c1.4,0.8,1.8,2.6,0.8,3.8L31,8c-0.8,1-2.3,1.3-3.4,0.6c-2.9-1.6-6.2-2.5-9.9-2.5
			c-5.7,0-10,1.7-10,5.6c0,3.3,3,4.2,6.8,4.2h7.5c7.3,0,12.6,2.6,12.6,9.6C34.5,33.4,27,37,17.8,37C13,37,7.1,35.7,2.1,32.3
			c-1.3-0.9-1.5-2.7-0.5-3.8L2,28.2c0.9-1,2.5-1.1,3.6-0.3c3.4,2.5,7.4,4,11.7,4c6.3,0,11.5-1.9,11.5-6.4c0-3.6-3-4.2-7.5-4.2h-6
			c-6.5,0-13.4-1.3-13.4-9.4C1.9,4.4,10.1,1,17.5,1z"/>
		<path class="st0" d="M44.8,3.6v0.2c0,1.4-1.2,2.6-2.7,2.6h0c-1.5,0-2.7-1.2-2.7-2.6V3.6c0-1.4,1.2-2.6,2.7-2.6h0
			C43.6,1,44.8,2.2,44.8,3.6z M44.8,12.7v21.2c0,1.4-1.2,2.6-2.7,2.6h0c-1.5,0-2.7-1.2-2.7-2.6V12.7c0-1.4,1.2-2.6,2.7-2.6h0
			C43.6,10.1,44.8,11.2,44.8,12.7z"/>
		<path class="st0" d="M56,7.2v2.9h16.1c1.4,0,2.5,1.1,2.5,2.4v0.1c0,1.3-1.1,2.4-2.5,2.4H56v6.8c0,5.7,1.6,10.2,7.8,10.2
			c3,0,5-1.3,6.6-4c0.7-1.1,2.2-1.5,3.4-0.9l0,0c1.3,0.6,1.7,2.1,1,3.3c-2.5,4.2-6.1,6.4-11,6.4c-8.9,0-13.2-5.6-13.2-15.5V7.2
			c0-1.3,1.1-2.4,2.5-2.4h0.3C54.9,4.8,56,5.9,56,7.2z"/>
		<path class="st0" d="M104.2,30.7c1.2,1.1,1,3-0.5,3.9c-2.9,1.7-6.2,2.4-9.3,2.4c-8.6,0-15.3-5.3-15.3-13.6
			c0-8.3,6.4-13.8,15.2-13.8c6.3,0,12.6,3.2,12.6,8.9c0,5.8-4.5,7.5-11,7.5H85.1c1.2,3.8,4.8,6.1,9.6,6.1c2,0,4.4-0.4,6.6-1.7
			C102.2,29.8,103.4,30,104.2,30.7L104.2,30.7z M95.9,21.2c3,0,5.6-0.2,5.6-2.8c0-2.7-3.5-3.9-7.1-3.9c-4.8,0-8.6,2.2-9.5,6.8H95.9z
			"/>
		<path class="st0" d="M158.5,36.4c-1.4,0-2.5-1.1-2.5-2.4V16.9c0-6.3-2.4-10.8-8.1-10.8c-5.8,0-8.1,4.3-8.1,10.1V34
			c0,1.3-1.1,2.4-2.5,2.4h-0.5c-1.4,0-2.5-1.1-2.5-2.4V14.1c0-4.3-3.6-8-8-8c-5.7,0-8.1,4.5-8.1,10.8V34c0,1.3-1.1,2.4-2.5,2.4H115
			c-1.4,0-2.5-1.1-2.5-2.4V14.7c0-7.4,6.1-13.7,13.8-13.7c4.9,0,9.1,2.4,10.7,6c1.6-3.5,5.8-6,10.7-6c9.3,0,13.9,6.4,13.9,15.5V34
			c0,1.3-1.1,2.4-2.5,2.4H158.5z"/>
		<path class="st0" d="M173.4,3.6v0.2c0,1.4-1.2,2.6-2.7,2.6l0,0c-1.5,0-2.7-1.2-2.7-2.6V3.6c0-1.4,1.2-2.6,2.7-2.6l0,0
			C172.2,1,173.4,2.2,173.4,3.6z M173.4,12.7v21.2c0,1.4-1.2,2.6-2.7,2.6l0,0c-1.5,0-2.7-1.2-2.7-2.6V12.7c0-1.4,1.2-2.6,2.7-2.6
			l0,0C172.2,10.1,173.4,11.2,173.4,12.7z"/>
		<path class="st0" d="M184.7,23.9v9.9c0,1.4-1.2,2.6-2.7,2.6l0,0c-1.5,0-2.7-1.2-2.7-2.6V23.6c0-8.1,5.4-14.1,14.7-14.1
			c9.3,0,14.7,5.9,14.7,14.1v10.2c0,1.4-1.2,2.6-2.7,2.6l0,0c-1.5,0-2.7-1.2-2.7-2.6v-9.9c0-5.9-3.4-9.4-9.3-9.4
			S184.7,18,184.7,23.9z"/>
		<path class="st0" d="M240.8,1.6L240.8,1.6c1.5,0,2.7,1.2,2.7,2.6v17.9c0,9.7-6.6,14.8-15.2,14.8c-8.6,0-15.2-5.3-15.2-13.7
			c0-8.1,6.1-13.7,15-13.7c4.1,0,8,1.6,10.1,3.9V4.2C238.1,2.7,239.3,1.6,240.8,1.6z M228.2,32c5.4,0,9.8-3.5,9.8-8.8
			c0-5.9-4.3-8.8-9.8-8.8c-5.4,0-9.7,3.2-9.7,8.8C218.5,28.9,222.8,32,228.2,32z"/>
		<path class="st0" d="M272.9,30.7c1.2,1.1,1,3-0.5,3.9c-2.9,1.7-6.2,2.4-9.3,2.4c-8.6,0-15.3-5.3-15.3-13.6
			c0-8.3,6.4-13.8,15.2-13.8c6.3,0,12.6,3.2,12.6,8.9c0,5.8-4.5,7.5-11,7.5h-10.9c1.2,3.8,4.8,6.1,9.6,6.1c2,0,4.4-0.4,6.6-1.7
			C270.8,29.8,272.1,30,272.9,30.7L272.9,30.7z M264.6,21.2c3,0,5.6-0.2,5.6-2.8c0-2.7-3.5-3.9-7.1-3.9c-4.8,0-8.6,2.2-9.5,6.8
			H264.6z"/>
		<path class="st0" d="M300.8,13.5l-0.1,0.2c-0.5,1.1-1.8,1.6-3,1.3c-1-0.3-2.1-0.5-3-0.5c-5.6,0-8.8,3.5-8.8,9.4v10
			c0,1.3-1.1,2.4-2.5,2.4H283c-1.4,0-2.5-1.1-2.5-2.4V23.6c0-8.1,5.1-14.1,14-14.1c1.6,0,3.1,0.2,4.6,0.6
			C300.7,10.5,301.4,12.2,300.8,13.5z"/>
	</g>
</g>
</svg>
